<svg xmlns="http://www.w3.org/2000/svg" viewBox="0 0 512 512">
  <defs>
    <linearGradient id="bg" x1="0%" y1="0%" x2="100%" y2="100%">
      <stop offset="0%" style="stop-color:#6366f1"/>
      <stop offset="50%" style="stop-color:#8b5cf6"/>
      <stop offset="100%" style="stop-color:#a855f7"/>
    </linearGradient>
    <linearGradient id="shine" x1="0%" y1="0%" x2="100%" y2="100%">
      <stop offset="0%" style="stop-color:white;stop-opacity:0.3"/>
      <stop offset="50%" style="stop-color:white;stop-opacity:0"/>
    </linearGradient>
    <filter id="shadow" x="-20%" y="-20%" width="140%" height="140%">
      <feDropShadow dx="0" dy="4" stdDeviation="8" flood-opacity="0.3"/>
    </filter>
  </defs>
  
  <rect width="512" height="512" rx="96" fill="url(#bg)"/>
  <rect width="512" height="512" rx="96" fill="url(#shine)"/>
  
  <g filter="url(#shadow)">
    <rect x="80" y="100" width="200" height="150" rx="16" fill="white"/>
    <rect x="80" y="100" width="200" height="40" rx="16" fill="#e0e7ff"/>
    <rect x="80" y="124" width="200" height="16" fill="#e0e7ff"/>
    <circle cx="140" cy="190" r="25" fill="#c7d2fe"/>
    <path d="M100 230 L140 180 L180 210 L240 160 L260 180 L260 234 Q260 250 244 250 L96 250 Q80 250 80 234 L80 230 Z" fill="#a5b4fc"/>
  </g>
  
  <g transform="translate(300, 110)" filter="url(#shadow)">
    <rect x="0" y="50" width="28" height="90" rx="6" fill="white"/>
    <rect x="40" y="30" width="28" height="110" rx="6" fill="white"/>
    <rect x="80" y="60" width="28" height="80" rx="6" fill="white"/>
    <rect x="0" y="80" width="28" height="60" rx="6" fill="#34d399"/>
    <rect x="40" y="60" width="28" height="80" rx="6" fill="#34d399"/>
    <rect x="80" y="90" width="28" height="50" rx="6" fill="#34d399"/>
  </g>
  
  <g transform="translate(140, 280)" filter="url(#shadow)">
    <circle cx="80" cy="80" r="65" fill="white"/>
    <circle cx="80" cy="80" r="45" fill="none" stroke="#6366f1" stroke-width="8"/>
    
    <path d="M60 65 L75 80 L100 55" stroke="#10b981" stroke-width="10" stroke-linecap="round" stroke-linejoin="round" fill="none"/>
    
    <polygon points="50,95 65,80 80,95 65,110" fill="#f59e0b"/>
    <polygon points="80,95 95,80 110,95 95,110" fill="#ef4444"/>
    <polygon points="65,110 80,95 95,110 80,125" fill="#3b82f6"/>
  </g>
  
  <g transform="translate(300, 300)" filter="url(#shadow)">
    <rect x="0" y="0" width="120" height="100" rx="12" fill="white"/>
    <path d="M20 50 L50 25 L80 50 L100 35 L100 88 Q100 100 88 100 L12 100 Q0 100 0 88 L0 50 Z" fill="#ddd6fe"/>
    <circle cx="35" cy="35" r="12" fill="#fbbf24"/>
    
    <path d="M85 15 L105 15 L95 0 Z" fill="#10b981"/>
    <path d="M85 15 L105 15 L95 30 Z" fill="#6366f1"/>
  </g>
</svg>